<svg viewBox="0 0 40 50" fill="none" xmlns="http://www.w3.org/2000/svg">
  <defs>
    <radialGradient id="redGradient" cx="35%" cy="35%">
      <stop offset="0%" stop-color="#FCA5A5" />
      <stop offset="50%" stop-color="#EF4444" />
      <stop offset="100%" stop-color="#B91C1C" />
    </radialGradient>
    <radialGradient id="whiteGradient" cx="35%" cy="35%">
      <stop offset="0%" stop-color="#FFFFFF" />
      <stop offset="70%" stop-color="#F3F4F6" />
      <stop offset="100%" stop-color="#D1D5DB" />
    </radialGradient>
  </defs>
  <!-- Shadow -->
  <ellipse cx="20" cy="41" rx="16" ry="3" fill="#000000" opacity="0.2" />
  <!-- Top red half -->
  <path d="M 20 7 A 18 18 0 0 1 38 25 L 2 25 A 18 18 0 0 1 20 7 Z" fill="url(#redGradient)" />
  <!-- Bottom white half -->
  <path d="M 20 43 A 18 18 0 0 1 2 25 L 38 25 A 18 18 0 0 1 20 43 Z" fill="url(#whiteGradient)" />
  <!-- Outline -->
  <circle cx="20" cy="25" r="18" stroke="#1F2937" stroke-width="2" fill="none" />
  <!-- Center black band -->
  <rect x="2" y="22" width="36" height="6" fill="#1F2937" />
  <!-- Button -->
  <circle cx="20" cy="25" r="7" fill="url(#whiteGradient)" stroke="#1F2937" stroke-width="2" />
  <circle cx="20" cy="25" r="4" fill="white" stroke="#6B7280" stroke-width="1" />
  <!-- Highlight -->
  <circle cx="15" cy="15" r="5" fill="white" opacity="0.4" />
</svg>
